<svg id="Layer_3" fill="#81e6d9" enable-background="new 0 0 64 64" height="512" viewBox="0 0 64 64" width="512" xmlns="http://www.w3.org/2000/svg"><circle cx="58" cy="26" r="3"/><path d="m49.4 28.8c-.062-.046-.119-.1-.169-.16l-4.299-5.159-1.564 1.564 6.385 7.296c.305.349.33.863.061 1.24l-5 7c-.268.376-.763.517-1.185.348l-4.509-1.804c-.751-.302-1.654-.021-2.104.653l-3.814 5.722.63.945c.279.418.192.967-.179 1.295l1.1.825 3.414-5.12c.268-.401.787-.554 1.226-.364l7 3c.266.113.469.337.558.611s.055.574-.094.822l-2.494 4.157c-.237.397-.363.85-.363 1.311 0 .479.134.945.387 1.35l3.979 6.367 2.174-1.087-3.372-5.058c-.21-.315-.225-.722-.036-1.051l3.939-6.894 1.967-6.885 1.924.549-1.772 6.202 2.227 1.113 2.496-7.488-4.683-8.43z"/><path d="m24.881 39.125-4.51 1.804c-.422.17-.916.029-1.185-.348l-5-7c-.27-.377-.244-.891.061-1.24l6.385-7.296-1.564-1.564-4.299 5.159c-.05.06-.106.113-.169.16l-3.829 2.872-4.683 8.43 2.496 7.488 2.227-1.113-1.772-6.202 1.924-.549 1.967 6.884 3.939 6.895c.188.329.174.735-.036 1.051l-3.372 5.058 2.174 1.087 3.979-6.367c.252-.406.386-.873.386-1.352 0-.461-.126-.914-.363-1.311l-2.494-4.157c-.148-.248-.183-.548-.094-.822s.292-.498.558-.611l7-3c.439-.188.958-.037 1.226.364l3.414 5.12 2.397-1.798-4.66-6.989c-.45-.674-1.359-.955-2.103-.653z"/><circle cx="6" cy="26" r="3"/><path d="m39 10c0-3.86-3.141-7-7-7s-7 3.14-7 7 3.141 7 7 7 7-3.14 7-7zm-4-1h-2.586l2.293 2.293c.286.286.372.716.217 1.09-.154.373-.52.617-.924.617h-1v2h-2v-2h-2v-2h2.586l-2.293-2.293c-.286-.286-.372-.716-.217-1.09.154-.373.52-.617.924-.617h1v-2h2v2h2z"/><path d="m36.418 17.832 5.668 5.668 1.414-1.414-5.446-5.446c-.499.455-1.045.857-1.636 1.192z"/><path d="m21.914 23.5 5.668-5.668c-.591-.335-1.137-.737-1.636-1.192l-5.446 5.446z"/></svg>