<svg id="Layer_1" fill="#81e6d9" enable-background="new 0 0 512 512" height="512" viewBox="0 0 512 512" width="512" xmlns="http://www.w3.org/2000/svg"><g><path d="m507.606 395.512-54.966-54.972c-5.668 11.929-16.509 21.095-30.264 24.363l-7.488 1.778-1.779 7.494c-3.039 12.799-17.333 36.901-47.42 34.455l-7.681-.624-4.006 6.575c-6.744 11.067-18.064 18.631-30.649 20.874l72.159 72.151c3.676 3.676 8.993 5.187 14.053 3.992 5.06-1.194 9.14-4.924 10.784-9.855l20.347-61.048 61.048-20.347c4.932-1.644 8.661-5.724 9.855-10.784 1.194-5.059-.317-10.377-3.993-14.052z"/><path d="m157.998 414.582-4.006-6.575-7.681.624c-30.087 2.446-44.381-21.656-47.42-34.455l-1.779-7.494-7.488-1.778c-13.755-3.268-24.596-12.434-30.264-24.363l-54.966 54.971c-3.676 3.676-5.187 8.993-3.992 14.053 1.194 5.06 4.924 9.14 9.855 10.784l61.048 20.347 20.347 61.048c1.644 4.932 5.724 8.661 10.784 9.855s10.377-.316 14.053-3.992l72.159-72.151c-12.586-2.244-23.906-9.807-30.65-20.874z"/><path d="m328.384 398.97 13.627-22.36 26.101 2.12c7.367.597 14.097-4.278 15.807-11.485l6.051-25.479 25.471-6.049c7.205-1.712 12.084-8.427 11.484-15.809l-2.12-26.094 22.359-13.626c6.324-3.854 8.889-11.746 6.039-18.582l-10.076-24.166 17.052-19.868c4.823-5.619 4.824-13.918.002-19.538l-17.054-19.875 10.076-24.168c2.85-6.835.285-14.728-6.039-18.582l-22.359-13.626 2.12-26.094c.599-7.382-4.279-14.097-11.484-15.809l-25.471-6.049-6.051-25.479c-1.711-7.207-8.44-12.082-15.807-11.485l-26.101 2.12-13.627-22.36c-3.854-6.326-11.751-8.887-18.584-6.038l-24.164 10.082-19.867-17.054c-5.619-4.823-13.92-4.823-19.539 0l-19.866 17.052-24.164-10.082c-6.837-2.851-14.729-.287-18.584 6.038l-13.627 22.36-26.101-2.12c-7.382-.591-14.096 4.278-15.807 11.485l-6.051 25.479-25.471 6.051c-7.205 1.712-12.084 8.427-11.484 15.809l2.12 26.094-22.359 13.626c-6.324 3.854-8.889 11.746-6.039 18.582l10.076 24.168-17.054 19.875c-4.822 5.62-4.821 13.919.002 19.538l17.052 19.868-10.074 24.166c-2.85 6.836-.285 14.728 6.039 18.582l22.359 13.626-2.12 26.094c-.599 7.382 4.279 14.097 11.484 15.809l25.471 6.049 6.051 25.479c1.712 7.207 8.426 12.076 15.807 11.485l26.101-2.12 13.627 22.36c3.854 6.325 11.747 8.889 18.584 6.038l24.164-10.082 19.866 17.051c5.619 4.823 13.92 4.823 19.539 0l19.866-17.051 24.164 10.082c6.832 2.849 14.729.287 18.583-6.038zm-77.844-84.163c-5.856 5.857-15.355 5.859-21.213 0l-88.367-88.367c-5.858-5.857-5.858-15.355 0-21.213l45.444-45.445c5.857-5.858 15.355-5.858 21.213 0l32.316 32.315 72.482-72.482c5.857-5.858 15.355-5.858 21.213 0l45.444 45.444c5.858 5.858 5.858 15.355 0 21.213z"/><path d="m250.54 223.917c-5.857 5.858-15.355 5.858-21.213 0l-32.316-32.315-24.231 24.231 67.154 67.153 107.32-107.32-24.231-24.231z"/></g></svg>